<!DOCTYPE svg PUBLIC "-//W3C//DTD SVG 20010904//EN" "http://www.w3.org/TR/2001/REC-SVG-20010904/DTD/svg10.dtd">
<svg version="1.0" xmlns="http://www.w3.org/2000/svg" width="1200px" height="900px" viewBox="0 0 12000 9000" preserveAspectRatio="xMidYMid meet">
<g id="layer101" fill="#ffffff" stroke="none">
 <path d="M3425 8470 c-5 -9 39 -57 136 -148 369 -348 641 -631 717 -745 25 -37 27 -49 26 -131 -1 -56 -50 -428 -124 -951 -67 -473 -145 -1025 -174 -1227 -29 -202 -55 -370 -58 -373 -3 -4 -153 64 -333 150 -180 86 -329 154 -332 151 -10 -10 11 -42 178 -266 129 -175 191 -247 327 -383 295 -298 443 -386 792 -476 170 -43 257 -54 435 -55 229 0 381 32 547 115 188 95 346 328 384 568 60 378 1 830 -173 1341 -37 108 -203 462 -269 573 -226 378 -251 412 -578 802 -248 295 -498 536 -691 665 -44 30 -118 81 -165 115 -135 99 -326 203 -459 251 -81 29 -175 41 -186 24z m1637 -1873 c84 -134 245 -437 313 -587 95 -212 151 -412 190 -680 10 -63 22 -144 27 -180 17 -117 -18 -313 -78 -431 -26 -53 -119 -140 -179 -169 -23 -11 -79 -25 -125 -31 -147 -20 -288 1 -417 61 -51 23 -63 34 -63 52 0 25 226 2001 235 2056 3 17 9 32 13 32 4 0 42 -55 84 -123z"/>
 <path d="M7889 8463 c-11 -13 -14 -103 -15 -477 -2 -461 -10 -711 -40 -1161 -17 -256 -77 -891 -84 -898 -3 -3 -66 15 -140 40 -265 87 -512 151 -660 172 -383 55 -688 90 -822 96 -251 12 -235 5 477 -200 689 -199 769 -228 1197 -429 622 -292 1233 -602 1313 -666 165 -131 341 -332 408 -466 65 -131 72 -163 72 -334 0 -139 -3 -161 -23 -210 -45 -107 -81 -128 -317 -185 -186 -44 -204 -54 -281 -158 -109 -147 -111 -350 -6 -513 46 -70 196 -212 279 -261 120 -73 303 -145 303 -120 0 4 -18 34 -40 68 -62 96 -80 155 -80 261 0 78 4 97 25 137 34 61 79 89 261 157 175 65 174 65 242 117 104 79 209 255 233 391 15 89 6 334 -16 436 -51 232 -211 449 -475 645 -263 196 -419 294 -780 489 -259 139 -227 59 -255 636 -16 328 -21 394 -76 980 -64 692 -107 1051 -136 1122 -10 25 -22 38 -34 38 -36 0 -41 -32 -30 -178 38 -479 37 -2289 -1 -2327 -4 -4 -78 24 -165 62 l-158 70 -6 634 c-7 735 -28 1206 -75 1719 -18 200 -30 275 -51 306 -18 28 -26 30 -44 7z"/>
 <path d="M2623 6140 c-28 -11 -26 -2 -123 -505 -45 -231 -119 -613 -165 -850 -46 -236 -143 -734 -215 -1105 -72 -371 -134 -678 -138 -682 -4 -4 -207 36 -452 88 -245 52 -499 105 -565 119 -66 14 -218 46 -337 72 -231 49 -268 50 -268 9 0 -12 8 -30 18 -38 9 -9 184 -102 387 -208 204 -106 480 -250 615 -320 1294 -674 1502 -780 1531 -780 19 0 33 8 42 23 10 15 31 205 67 607 29 322 54 587 56 589 2 2 6 2 8 0 2 -2 94 -326 205 -719 110 -393 210 -734 220 -757 11 -22 35 -52 53 -65 51 -38 493 -229 512 -222 32 12 35 -1 -134 564 -61 206 -122 411 -135 455 -13 44 -67 226 -120 405 -181 609 -636 2144 -806 2720 -188 636 -185 628 -256 600z"/>
 <path d="M6574 5401 c-140 -40 -263 -131 -344 -254 -48 -74 -96 -194 -105 -263 -6 -49 -6 -49 72 -86 54 -25 116 -68 198 -137 138 -117 177 -138 289 -157 60 -11 90 -22 116 -43 19 -15 46 -34 59 -41 36 -19 129 -39 183 -40 26 0 102 -11 170 -25 68 -14 129 -25 135 -25 8 0 13 12 13 28 0 26 -5 30 -57 46 -32 9 -98 25 -146 36 -106 24 -174 57 -236 115 -65 61 -126 84 -263 101 -149 18 -185 32 -277 101 -41 31 -99 68 -128 83 -54 27 -54 27 13 34 36 4 96 14 133 23 44 11 113 17 206 17 156 1 234 -16 347 -76 64 -34 246 -212 321 -313 24 -33 55 -70 69 -83 25 -23 25 -23 32 9 11 56 6 208 -10 316 -16 109 -51 217 -105 325 -44 89 -180 222 -273 266 -127 62 -289 78 -412 43z"/>
 <path d="M7676 5153 c-41 -391 -76 -647 -191 -1403 -67 -434 -77 -487 -96 -502 -18 -15 -43 -18 -175 -18 -85 0 -154 -3 -154 -7 0 -14 80 -58 390 -218 168 -87 316 -165 330 -175 14 -9 95 -54 180 -100 85 -46 248 -137 362 -201 114 -65 218 -121 232 -125 48 -12 52 12 70 376 10 184 26 495 36 690 41 747 53 1369 28 1402 -11 14 -142 98 -152 98 -2 0 -35 18 -72 40 -38 22 -76 40 -86 40 -18 0 -16 13 -44 -295 -43 -490 -95 -888 -230 -1760 -9 -58 -20 -73 -62 -85 -31 -8 -41 -7 -61 8 -47 35 -48 12 4 782 47 709 65 1069 65 1326 0 112 -2 133 -17 146 -51 43 -279 148 -322 148 -15 0 -20 -24 -35 -167z"/>
 <path d="M6104 4745 c-11 -45 14 -303 40 -405 93 -363 317 -588 606 -607 245 -17 449 127 549 386 16 42 33 89 36 104 8 28 8 28 -66 22 -41 -3 -122 -15 -181 -26 -146 -27 -331 -30 -376 -6 -37 20 -147 57 -169 57 -22 0 -192 169 -221 220 -37 65 -156 231 -186 259 -25 24 -25 24 -32 -4z"/>
 <path d="M4180 3892 c-146 -48 -278 -158 -353 -293 -257 -461 -8 -1117 469 -1239 135 -35 319 -24 410 23 56 29 137 132 171 219 9 24 31 60 50 81 79 89 15 74 -225 -53 -119 -62 -240 -63 -305 -2 -65 62 -55 161 20 181 52 15 135 13 213 -4 71 -16 172 -18 235 -6 40 8 40 8 -20 25 -33 9 -114 44 -179 77 -66 34 -190 92 -275 131 -86 39 -162 75 -168 80 -17 14 -16 83 1 117 22 42 102 110 161 138 44 19 70 24 132 24 102 -1 126 -9 225 -74 105 -69 156 -120 214 -213 33 -53 52 -74 67 -74 19 0 20 4 14 93 -16 231 -108 440 -262 592 -79 78 -153 125 -253 163 -92 34 -260 41 -342 14z"/>
 <path d="M5187 3535 c-5 -93 -126 -932 -172 -1190 -19 -107 -19 -225 -1 -251 12 -16 15 -16 19 -4 29 94 43 119 102 175 34 33 71 75 81 92 18 33 18 33 46 -43 52 -143 148 -294 213 -334 42 -26 157 -28 212 -3 66 30 130 82 161 131 37 57 134 302 163 409 44 164 112 389 125 414 26 51 68 91 156 150 48 33 88 63 88 68 0 9 -122 21 -225 21 -230 0 -383 -98 -489 -315 -27 -55 -54 -117 -61 -139 -11 -39 -11 -39 -27 -5 -9 19 -30 111 -47 206 -30 163 -60 272 -103 372 -39 91 -129 238 -181 296 l-54 59 -6 -109z"/>
 <path d="M6523 2985 c-193 -43 -347 -214 -403 -445 -25 -106 -27 -286 -4 -398 49 -241 179 -425 358 -512 316 -153 631 7 738 376 20 69 23 101 23 249 0 201 -10 250 -84 400 -54 110 -123 188 -226 256 -111 73 -276 103 -402 74z m92 -438 l69 -97 68 73 c78 86 218 184 218 152 0 -20 -62 -161 -117 -265 -67 -127 -67 -127 -26 -211 70 -143 115 -276 120 -354 4 -70 4 -70 -41 -21 -42 46 -88 116 -169 256 -18 30 -39 56 -47 58 -9 1 -24 -12 -35 -30 -27 -47 -162 -187 -217 -227 -55 -39 -84 -37 -68 5 22 56 165 321 216 399 12 18 7 34 -42 140 -58 125 -124 303 -124 333 1 25 112 -95 195 -211z"/>
 <path d="M7412 2617 c-53 -433 -141 -987 -178 -1122 -28 -101 -45 -285 -26 -285 7 0 26 25 43 56 17 30 54 74 81 97 28 23 62 62 78 86 27 43 27 43 48 -25 34 -112 105 -247 160 -303 48 -51 48 -51 119 -51 87 0 146 23 220 86 46 40 54 43 59 27 20 -57 77 -182 106 -230 66 -111 127 -153 218 -153 80 1 183 72 228 158 32 63 122 335 176 537 87 327 147 418 326 490 36 15 74 30 85 35 17 7 14 11 -26 29 -107 48 -310 52 -432 8 -89 -33 -138 -66 -188 -129 -43 -54 -145 -257 -156 -309 -8 -40 -20 -36 -32 9 -15 53 -51 335 -51 392 0 62 29 155 69 220 41 66 40 74 -6 65 -21 -4 -64 -11 -96 -15 -132 -19 -221 -68 -291 -160 -32 -42 -92 -160 -140 -275 -15 -34 -19 -37 -27 -23 -5 10 -21 93 -34 185 -42 292 -62 367 -151 552 -46 97 -137 239 -154 241 -3 0 -16 -87 -28 -193z"/>
 </g>

</svg>